<svg width="25" height="25" viewBox="0 0 25 25" fill="none" xmlns="http://www.w3.org/2000/svg">
<g id="IMAGE" clip-path="url(#clip0_13078_16)">
<g id="Location-Icon">
<path id="Combined-Shape" d="M4.38123 15.0813C4.73188 14.9236 5.12149 15.0813 5.27733 15.436C5.43318 15.7906 5.27733 16.1847 4.92668 16.3424C3.13448 17.1305 2.08253 18.1158 2.08253 19.0616C2.08253 20.9926 6.4072 23.1601 12.6799 23.1601C18.9527 23.1601 23.3163 20.9926 23.2773 19.0616C23.2773 18.1158 22.2643 17.1305 20.5111 16.3818C20.1605 16.2241 20.0046 15.83 20.1605 15.4754C20.3163 15.1207 20.7059 14.9631 21.0566 15.1207C23.3942 16.1453 24.6799 17.5246 24.6799 19.0616C24.6799 22.1355 19.5371 24.5 12.6799 24.5C5.82279 24.5 0.679932 22.1749 0.679932 19.0616C0.679932 17.5246 2.00461 16.1059 4.38123 15.0813ZM12.6799 0.5C17.0046 0.5 20.5111 4.0468 20.5111 8.42118C20.5111 11.6921 16.4202 16.8153 13.9656 19.5739C13.654 19.968 13.1864 20.165 12.6799 20.165C12.1734 20.165 11.7059 19.9286 11.3942 19.5739C8.93967 16.8153 4.84876 11.6921 4.84876 8.42118C4.84876 4.0468 8.35526 0.5 12.6799 0.5ZM12.6799 1.87931C9.13448 1.87931 6.2124 4.79557 6.2124 8.42118C6.2124 10.431 8.55006 14.2537 12.4072 18.6281C12.4851 18.7463 12.641 18.7463 12.6799 18.7463C12.7189 18.7463 12.8358 18.7463 12.9527 18.6281C16.8488 14.2537 19.1475 10.431 19.1475 8.42118C19.1475 4.79557 16.2254 1.87931 12.6799 1.87931Z" fill="white"/>
</g>
</g>
<defs>
<clipPath id="clip0_13078_16">
<rect width="24" height="24" fill="white" transform="translate(0.679932 0.5)"/>
</clipPath>
</defs>
</svg>
