<svg width="25" height="25" viewBox="0 0 25 25" fill="none" xmlns="http://www.w3.org/2000/svg">
<g id="IMAGE" clip-path="url(#clip0_13078_72)">
<g id="Chair-Icon">
<path id="Shape" d="M19.0017 15.5244C19.0017 14.3146 18.0101 13.339 16.7807 13.339H16.5031L17.4152 6.04146V6.00244C17.4946 4.55854 16.979 3.19268 15.9478 2.13902C14.9167 1.08537 13.5682 0.5 12.1008 0.5C10.6334 0.5 9.24528 1.08537 8.25378 2.13902C7.22261 3.19268 6.70703 4.55854 6.78635 6.00244V6.04146L7.69853 13.339H7.42091C6.19145 13.339 5.19995 14.3146 5.19995 15.5244V17.2024C5.19995 17.7878 5.43791 18.3341 5.83451 18.7244V23.7976C5.83451 24.1878 6.15179 24.5 6.54839 24.5C6.94499 24.5 7.26227 24.1878 7.26227 23.7976V19.3878C7.34159 19.3878 7.42091 19.3878 7.46057 19.3878H9.1263V22.7049C9.1263 23.0951 9.44358 23.4073 9.84018 23.4073C10.2368 23.4073 10.5541 23.0951 10.5541 22.7049V19.3878H13.8458V22.7049C13.8458 23.0951 14.1631 23.4073 14.5597 23.4073C14.9563 23.4073 15.2736 23.0951 15.2736 22.7049V19.3878H16.9393C17.0186 19.3878 17.098 19.3878 17.1376 19.3878V23.7976C17.1376 24.1878 17.4549 24.5 17.8515 24.5C18.2481 24.5 18.5654 24.1878 18.5654 23.7976V18.7634C18.962 18.3732 19.2 17.8268 19.2 17.2415V15.5244H19.0017ZM8.09514 5.88537C8.05548 4.83171 8.45208 3.81707 9.16596 3.03659C9.9195 2.2561 10.9507 1.82683 12.0215 1.82683C13.132 1.82683 14.1235 2.2561 14.877 3.03659C15.6305 3.81707 16.0271 4.83171 15.9478 5.88537L15.0356 13.3H9.04698L8.09514 5.88537ZM7.38125 18.061C7.22261 18.061 7.06397 18.022 6.94499 17.9439C6.90533 17.9049 6.86567 17.9049 6.82601 17.8659C6.62771 17.7098 6.50873 17.4756 6.50873 17.2415V15.5634C6.50873 15.0951 6.90533 14.7439 7.34159 14.7439H8.37276H15.6702H16.7014C17.1773 14.7439 17.5342 15.1341 17.5342 15.5634V17.2415C17.5342 17.5146 17.4152 17.7098 17.2169 17.8659C17.1773 17.9049 17.1376 17.9049 17.098 17.9439C16.979 18.022 16.8203 18.061 16.6617 18.061H7.38125Z" fill="white"/>
</g>
</g>
<defs>
<clipPath id="clip0_13078_72">
<rect width="24" height="24" fill="white" transform="translate(0.199951 0.5)"/>
</clipPath>
</defs>
</svg>
