<svg width="25" height="25" viewBox="0 0 25 25" fill="none" xmlns="http://www.w3.org/2000/svg">
<g id="IMAGE" clip-path="url(#clip0_13078_60)">
<g id="Foundation-Icon">
<path id="Shape" d="M24.0829 10.5301L24.1219 10.4918C24.1219 10.4918 24.1219 10.4536 24.1609 10.4153C24.1609 10.377 24.1609 10.377 24.2 10.3388V10.3005C24.2 10.2623 24.2 10.2623 24.2 10.224V10.1858V10.1475C24.2 10.1475 24.2 10.1475 24.2 10.1093C23.3804 5.48087 18.2292 2 12.1804 2C6.13166 2 0.980439 5.48087 0.199951 10.071C0.199951 10.071 0.199951 10.071 0.199951 10.1093V10.1475V10.1858C0.199951 10.224 0.199951 10.224 0.199951 10.2623C0.199951 10.3005 0.199951 10.3005 0.199951 10.3388C0.199951 10.377 0.199951 10.377 0.238976 10.4153C0.238976 10.4536 0.238976 10.4536 0.278 10.4918C0.278 10.5301 0.317024 10.5301 0.317024 10.5683L0.356049 10.6066L0.395073 10.6448L0.434098 10.6831L0.473122 10.7213L0.512146 10.7596C0.512146 10.7596 0.551171 10.7978 0.590195 10.7978C0.590195 10.7978 0.629219 10.8361 0.668244 10.8361C0.668244 10.8361 0.707268 10.8361 0.746293 10.8361C0.785317 10.8361 0.785317 10.8361 0.824341 10.8361H0.863366H0.90239H3.3219V21.5847H2.69751C2.30727 21.5847 1.99507 21.8907 1.99507 22.2732C1.99507 22.6557 2.30727 22.9617 2.69751 22.9617H9.33166C9.7219 22.9617 10.0341 22.6557 10.0341 22.2732C10.0341 21.8907 9.7219 21.5847 9.33166 21.5847H8.74629V10.8743H15.6926V21.623H15.0292C14.639 21.623 14.3268 21.929 14.3268 22.3115C14.3268 22.694 14.639 23 15.0292 23H21.6634C22.0536 23 22.3658 22.694 22.3658 22.3115C22.3658 21.929 22.0536 21.623 21.6634 21.623H21.156V10.8743H23.4975C23.5365 10.8743 23.5756 10.8743 23.6146 10.8743C23.6536 10.8743 23.6536 10.8743 23.6926 10.8743C23.7317 10.8743 23.7317 10.8743 23.7707 10.8743C23.8097 10.8743 23.8097 10.8743 23.8487 10.8361C23.8878 10.8361 23.8878 10.7978 23.9268 10.7978L23.9658 10.7596L24.0048 10.7213L24.0439 10.6831L24.0829 10.6448C24.0829 10.5683 24.0829 10.5683 24.0829 10.5301ZM12.1804 3.3388C17.2146 3.3388 21.5463 5.97814 22.639 9.57377H1.7219C2.81459 5.93989 7.14629 3.3388 12.1804 3.3388ZM7.38044 21.623H4.64873V10.8743H7.38044V21.623ZM19.7902 21.623H17.0585V10.8743H19.7902V21.623Z" fill="white"/>
</g>
</g>
<defs>
<clipPath id="clip0_13078_60">
<rect width="24" height="24" fill="white" transform="translate(0.199951 0.5)"/>
</clipPath>
</defs>
</svg>
